<svg width="195" height="32" viewBox="0 0 195 32" fill="none" xmlns="http://www.w3.org/2000/svg">
<g filter="url(#filter0_d_126432_793)">
<g opacity="0.4">
<path d="M100.271 3.18729C100.429 3.49024 100.513 3.82437 100.514 4.1635V20.759C100.504 21.3461 100.257 21.9065 99.8268 22.3217C99.3962 22.737 98.8151 22.9747 98.2062 22.9847H91.3423V24H99.259C99.8679 23.9899 100.449 23.7522 100.88 23.337C101.31 22.9217 101.557 22.3614 101.567 21.7742V5.17875C101.566 4.76326 101.443 4.35653 101.214 4.00458C100.985 3.65263 100.659 3.36952 100.271 3.18729Z" fill="#DBB590"/>
<path d="M110.927 2.953V22.9652H108.239V23.9853H111.979V2.953H110.927Z" fill="#DBB590"/>
<path d="M127.57 2.953V22.9652H124.583L124.882 23.9853H128.628V2.953H127.57Z" fill="#DBB590"/>
<path d="M121.086 13.8035V22.975H118.398V23.9951H122.139V17.313L121.086 13.8035Z" fill="#DBB590"/>
<path d="M137.42 15.2678H140.513V14.2282H136.367C136.016 14.2265 135.669 14.1463 135.355 13.9939C135.539 14.3733 135.83 14.6945 136.196 14.9201C136.562 15.1457 136.986 15.2663 137.42 15.2678Z" fill="#DBB590"/>
<path d="M138.853 16.6003L137.795 16.8346V19.3386H138.853V16.6003Z" fill="#DBB590"/>
<path d="M144.041 3.18729C144.199 3.49024 144.282 3.82437 144.284 4.1635V8.43439L141.566 9.03964V10.2892L145.337 9.44476V5.17387C145.334 4.75921 145.212 4.35351 144.983 4.00251C144.754 3.6515 144.428 3.36915 144.041 3.18729Z" fill="#DBB590"/>
<path d="M50.6399 3.18729C50.798 3.49024 50.8811 3.82437 50.8829 4.16349V20.759C50.8725 21.3461 50.6259 21.9065 50.1953 22.3217C49.7647 22.737 49.1836 22.9747 48.5747 22.9847H42.9763C42.6246 22.983 42.2781 22.9028 41.9639 22.7504C42.1525 23.1231 42.4453 23.4375 42.8093 23.6583C43.1733 23.8791 43.5941 23.9974 44.0241 24H49.6326C50.2415 23.9899 50.8226 23.7522 51.2532 23.337C51.6839 22.9217 51.9304 22.3614 51.9408 21.7742V5.17875C51.9381 4.76286 51.8148 4.356 51.5849 4.00411C51.355 3.65221 51.0277 3.36929 50.6399 3.18729Z" fill="#DBB590"/>
<path d="M61.1078 10.6211H62.1607V6.56008H63.821V5.53994H61.1078V10.6211Z" fill="#DBB590"/>
<path d="M67.3086 15.014C67.7005 14.8388 68.0322 14.5591 68.2645 14.208C68.4968 13.8568 68.6201 13.4488 68.6196 13.0323V5.17386C68.6199 4.75607 68.498 4.34667 68.2679 3.99267C68.0378 3.63868 67.7088 3.35445 67.3187 3.17265C67.4744 3.47642 67.5575 3.81002 67.5617 4.14885V12.0317C67.5646 12.4481 67.4436 12.8566 67.213 13.2087C66.9824 13.5609 66.652 13.8418 66.2608 14.0183L67.8198 22.975H64.9447L65.1219 23.9902H68.8626L67.3086 15.014Z" fill="#DBB590"/>
<path d="M62.5403 14.2086H61.1078V22.975H58.42V23.9951H62.1607V15.2678H62.7175L62.5403 14.2086Z" fill="#DBB590"/>
<path d="M77.3159 19.3191H78.3738V6.56008H80.029V5.53994H77.3159V19.3191Z" fill="#DBB590"/>
<path d="M27.6895 10.6211H28.7423V6.56008H30.3976V5.53994H27.6895V10.6211Z" fill="#DBB590"/>
<path d="M35.2266 11.363V5.17386C35.2239 4.75921 35.1012 4.35351 34.8722 4.0025C34.6433 3.6515 34.3172 3.36915 33.9307 3.18729C34.0888 3.49024 34.172 3.82437 34.1737 4.16349V10.3526C34.179 10.6787 34.1085 11.0018 33.9675 11.2983C33.8265 11.5947 33.6185 11.857 33.3587 12.0659C33.6165 12.2967 33.8237 12.575 33.968 12.8844C34.1123 13.1937 34.1909 13.5278 34.199 13.867V20.7492C34.1897 21.3452 33.9366 21.9135 33.4948 22.3303C33.053 22.7472 32.4583 22.9789 31.8402 22.975H25.0016V23.9902H32.9184C33.5273 23.9802 34.1084 23.7424 34.539 23.3272C34.9696 22.9119 35.2162 22.3516 35.2266 21.7645V14.8822C35.2168 14.542 35.136 14.2071 34.989 13.8977C34.842 13.5882 34.6319 13.3105 34.3711 13.0811C34.6395 12.876 34.856 12.6148 35.0042 12.3171C35.1524 12.0195 35.2284 11.6932 35.2266 11.363Z" fill="#DBB590"/>
<path d="M83.8052 4.16349C83.804 3.8243 83.7208 3.49005 83.5622 3.18729C83.9468 3.37178 84.2707 3.65569 84.4977 4.00733C84.7247 4.35898 84.846 4.76453 84.8479 5.17875V21.7742C84.8375 22.3614 84.591 22.9217 84.1603 23.337C83.7297 23.7522 83.1486 23.9899 82.5397 24H76.9261C76.4961 23.9974 76.0754 23.8791 75.7113 23.6583C75.3473 23.4375 75.0545 23.1231 74.8659 22.7504C75.1801 22.9028 75.5266 22.983 75.8783 22.9847H81.497C82.1059 22.9747 82.6869 22.737 83.1176 22.3217C83.5482 21.9065 83.7947 21.3461 83.8052 20.759V4.16349Z" fill="#DBB590"/>
<path d="M95.083 19.3386H94.025V5.53994H96.7382V6.56008H95.083V19.3386Z" fill="#DBB590"/>
<path d="M144.284 12.8517C144.282 12.5126 144.199 12.1785 144.041 11.8755C144.425 12.0592 144.749 12.3422 144.976 12.693C145.203 13.0438 145.325 13.4486 145.327 13.8621V21.7742C145.317 22.3614 145.07 22.9217 144.639 23.337C144.209 23.7522 143.628 23.9899 143.019 24H137.41C136.98 23.9974 136.559 23.8791 136.195 23.6583C135.831 23.4375 135.539 23.1231 135.35 22.7504C135.664 22.9028 136.011 22.983 136.362 22.9847H141.976C142.585 22.9747 143.166 22.737 143.597 22.3217C144.027 21.9065 144.274 21.3461 144.284 20.759V12.8517Z" fill="#DBB590"/>
<path d="M137.795 10.6211V5.53018L140.508 5.53994V6.56008H138.853V10.6211H137.795Z" fill="#DBB590"/>
<path d="M154.499 14.2282H154.843L155.547 16.4149V23.9951H151.806V22.975H154.499V14.2282Z" fill="#DBB590"/>
<path d="M161.12 2.953H162.517L159.024 13.4423L162.517 23.9951H158.746L158.716 23.8731L158.422 22.975H161.459L157.966 12.4271L161.12 2.953Z" fill="#DBB590"/>
<path d="M171.304 22.9652V2.953H172.357V23.9853H168.622V22.9652H171.304Z" fill="#DBB590"/>
<path d="M187.052 15.2239L189.947 12.4319L191 13.4521L188.11 16.244L187.052 15.2239Z" fill="#DBB590"/>
<path d="M8.87455 15.2239L11.7649 12.4368L12.8228 13.4521L9.94766 16.244L8.87455 15.2239Z" fill="#DBB590"/>
<path d="M28.7423 19.3386H27.6895V14.2282H30.3976V15.2678H28.7423V19.3386Z" fill="#DBB590"/>
<path d="M45.4465 19.3386H44.3936L44.3987 5.53994H47.1017V6.56008H45.4465V19.3386Z" fill="#DBB590"/>
</g>
<path d="M6.89032 7.72179L4 10.5137L6.89032 13.3154L9.78064 10.5137L6.89032 7.72179Z" fill="#DBB590"/>
<path d="M185.068 7.72667L182.177 10.5137L185.078 13.3154L187.963 10.5137L185.068 7.72667Z" fill="#DBB590"/>
<path fill-rule="evenodd" clip-rule="evenodd" d="M31.9511 9.3749C32.0956 9.081 32.1701 8.75967 32.1692 8.43441V2.22575C32.1639 1.63702 31.919 1.07385 31.4873 0.657545C31.0556 0.241235 30.4715 0.00510322 29.861 5.36551e-06H21.9443V21.0421H29.8661C30.475 21.0321 31.0561 20.7943 31.4867 20.3791C31.9173 19.9638 32.1639 19.4035 32.1743 18.8163V11.9341C32.1661 11.595 32.0876 11.2609 31.9433 10.9515C31.7989 10.6422 31.5918 10.3638 31.334 10.133C31.5957 9.92781 31.8065 9.66879 31.9511 9.3749ZM25.685 3.60708H28.3981V8.68822H25.685V3.60708ZM25.685 12.2953H28.3981V17.4057H25.685V12.2953Z" fill="#DBB590"/>
<path fill-rule="evenodd" clip-rule="evenodd" d="M48.1965 0.657545C47.7648 0.241235 47.1807 0.00510322 46.5702 5.36551e-06H40.9515C40.6482 -0.000637489 40.3478 0.0564922 40.0674 0.168118C39.7871 0.279745 39.5324 0.443669 39.3179 0.650477C39.1034 0.857283 38.9334 1.1029 38.8177 1.37323C38.7019 1.64356 38.6427 1.93328 38.6433 2.22575V18.8212C38.6486 19.41 38.8935 19.9731 39.3252 20.3894C39.757 20.8057 40.341 21.0419 40.9515 21.047H46.5702C47.1791 21.0369 47.7602 20.7992 48.1908 20.384C48.6214 19.9687 48.868 19.4084 48.8784 18.8212V2.22575C48.8731 1.63702 48.6282 1.07385 48.1965 0.657545ZM42.3942 3.60708H45.1022L45.1073 17.4057H42.3942V3.60708Z" fill="#DBB590"/>
<path fill-rule="evenodd" clip-rule="evenodd" d="M60.546 12.2953L62.0645 21.0421H65.7951L64.2361 12.0854C64.6317 11.9131 64.9676 11.6346 65.2037 11.2832C65.4398 10.9318 65.566 10.5224 65.5673 10.1037V2.22575C65.5693 1.93538 65.512 1.64748 65.3986 1.37848C65.2852 1.10947 65.118 0.864641 64.9065 0.657961C64.6949 0.45128 64.4433 0.286797 64.1658 0.173904C63.8884 0.0610128 63.5906 0.00192081 63.2895 5.36551e-06H55.3727V21.0421H59.1134V12.2953H60.546ZM59.1033 3.60708H61.8165V8.68822H59.1033V3.60708Z" fill="#DBB590"/>
<path fill-rule="evenodd" clip-rule="evenodd" d="M81.1188 0.657545C80.687 0.241235 80.103 0.00510322 79.4925 5.36551e-06H73.8536C73.2463 0.00643954 72.6662 0.243928 72.2396 0.660779C71.813 1.07763 71.5744 1.6401 71.5757 2.22575V18.8212C71.581 19.41 71.8259 19.9731 72.2576 20.3894C72.6894 20.8057 73.2734 21.0419 73.8839 21.047H79.4925C80.1014 21.0369 80.6825 20.7992 81.1131 20.384C81.5437 19.9687 81.7903 19.4084 81.8007 18.8212V2.22575C81.7954 1.63702 81.5505 1.07385 81.1188 0.657545ZM75.3114 3.60708H78.0245V17.4057H75.3114V3.60708Z" fill="#DBB590"/>
<path fill-rule="evenodd" clip-rule="evenodd" d="M97.828 0.657545C97.3962 0.241235 96.8122 0.00510322 96.2016 5.36551e-06H88.2849V21.047H96.2016C96.8106 21.0369 97.3916 20.7992 97.8223 20.384C98.2529 19.9687 98.4994 19.4084 98.5099 18.8212V2.22575C98.5046 1.63702 98.2597 1.07385 97.828 0.657545ZM92.0256 3.60708H94.7388V17.4057H92.0256V3.60708Z" fill="#DBB590"/>
<path d="M108.922 5.36551e-06H105.181V21.0421H108.922V5.36551e-06Z" fill="#DBB590"/>
<path d="M125.571 21.0421V5.36551e-06H121.815V8.62477L119.071 5.36551e-06H115.361V21.0421H119.086V11.8511L121.83 21.0421H125.571Z" fill="#DBB590"/>
<path d="M141.598 9.34577C141.166 8.92945 140.582 8.69332 139.971 8.68822H135.806V3.60708H138.519V7.32642L142.29 6.482V2.22575C142.285 1.63702 142.04 1.07385 141.608 0.657545C141.176 0.241235 140.592 0.00510322 139.982 5.36551e-06H134.363C134.061 0.000644472 133.761 0.0587225 133.482 0.170924C133.203 0.283126 132.949 0.44725 132.736 0.653929C132.522 0.86061 132.353 1.1058 132.238 1.37549C132.123 1.64518 132.064 1.9341 132.065 2.22575V10.0793C132.066 10.371 132.126 10.6596 132.242 10.9288C132.358 11.198 132.529 11.4425 132.743 11.6483C132.957 11.8541 133.212 12.0171 133.491 12.1281C133.771 12.2391 134.071 12.2959 134.373 12.2953H138.519V17.4106H135.806V13.6522L132.065 14.4918V18.8212C132.07 19.4083 132.314 19.97 132.743 20.386C133.173 20.8021 133.754 21.0393 134.363 21.047H139.971C140.58 21.0369 141.161 20.7992 141.592 20.384C142.023 19.9687 142.269 19.4084 142.28 18.8212V10.914C142.274 10.3252 142.03 9.76207 141.598 9.34577Z" fill="#DBB590"/>
<path d="M159.46 21.047L155.967 10.4942L159.49 5.36551e-06H155.689L152.818 8.68822H152.51V5.36551e-06H148.769V21.0421H152.51V12.3002H152.854L155.658 20.9249L155.689 21.047H159.46Z" fill="#DBB590"/>
<path d="M169.325 5.36551e-06H165.584V21.0421H169.325V5.36551e-06Z" fill="#DBB590"/>
</g>
<defs>
<filter id="filter0_d_126432_793" x="0" y="0" width="195" height="32" filterUnits="userSpaceOnUse" color-interpolation-filters="sRGB">
<feFlood flood-opacity="0" result="BackgroundImageFix"/>
<feColorMatrix in="SourceAlpha" type="matrix" values="0 0 0 0 0 0 0 0 0 0 0 0 0 0 0 0 0 0 127 0" result="hardAlpha"/>
<feOffset dy="4"/>
<feGaussianBlur stdDeviation="2"/>
<feComposite in2="hardAlpha" operator="out"/>
<feColorMatrix type="matrix" values="0 0 0 0 0 0 0 0 0 0 0 0 0 0 0 0 0 0 0.25 0"/>
<feBlend mode="normal" in2="BackgroundImageFix" result="effect1_dropShadow_126432_793"/>
<feBlend mode="normal" in="SourceGraphic" in2="effect1_dropShadow_126432_793" result="shape"/>
</filter>
</defs>
</svg>
